<svg width="20" height="19" viewBox="0 0 20 19" fill="none" xmlns="http://www.w3.org/2000/svg">
<path d="M10 18.5C14.8325 18.5 18.75 14.5825 18.75 9.75C18.75 4.91751 14.8325 1 10 1C5.16751 1 1.25 4.91751 1.25 9.75C1.25 14.5825 5.16751 18.5 10 18.5Z" stroke="black" stroke-miterlimit="10"/>
<path d="M14.45 12.85V5.65C14.45 5.4 14.25 5.25 14 5.25H13.6" stroke="black" stroke-miterlimit="10"/>
<path d="M16 12.85V6.95005C16 6.70005 15.8 6.55005 15.6 6.55005H15.2" stroke="black" stroke-miterlimit="10"/>
<path d="M12.4 15.1H5.9C5.65 15.1 5.5 14.9 5.5 14.7V4.80002C5.5 4.55002 5.7 4.40002 5.9 4.40002H12.4C12.65 4.40002 12.8 4.60002 12.8 4.80002V14.7C12.85 14.9 12.65 15.1 12.4 15.1Z" stroke="black" stroke-miterlimit="10"/>
<path d="M9.15 7.5L10.9 9.35C11.1 9.55 11.2 9.8 11.2 10.1C11.2 10.4 11.1 10.65 10.9 10.85C10.7 11.05 10.45 11.15 10.15 11.15C9.85 11.15 9.6 11.05 9.4 10.85L9.1 10.55L8.8 10.85C8.6 11.05 8.35 11.15 8.05 11.15C7.75 11.15 7.5 11.05 7.3 10.85C7.1 10.65 7 10.4 7 10.1C7 9.8 7.1 9.55 7.3 9.35L9.15 7.5Z" stroke="black" stroke-miterlimit="10"/>
<path d="M9.14999 10.6V12" stroke="black" stroke-miterlimit="10"/>
</svg>
