<svg width="19" height="20" viewBox="0 0 19 20" fill="none" xmlns="http://www.w3.org/2000/svg">
<path d="M10.5869 14.8655L13.0107 15.7683V14.6038L11.2251 13.4522V12.4041L15.8186 12.7276V11.3043L10.707 8.86279C10.6959 5.30851 9.75 3.21716 9.75 3.21716C9.75 3.21716 8.79149 5.30818 8.78038 8.86246L3.68146 11.3043V12.7276L8.27492 12.4041V13.4522L6.48929 14.6038V15.7683L8.91206 14.8659" stroke="black" stroke-miterlimit="10"/>
<path d="M9.75 13.1888V15.7683" stroke="black" stroke-miterlimit="10"/>
<path d="M9.75 18.75C14.5825 18.75 18.5 14.8325 18.5 10C18.5 5.16751 14.5825 1.25 9.75 1.25C4.91751 1.25 1 5.16751 1 10C1 14.8325 4.91751 18.75 9.75 18.75Z" stroke="#030102" stroke-miterlimit="10"/>
</svg>
