<svg width="19" height="20" viewBox="0 0 19 20" fill="none" xmlns="http://www.w3.org/2000/svg">
<path d="M9.75 18.75C14.5825 18.75 18.5 14.8325 18.5 10C18.5 5.16751 14.5825 1.25 9.75 1.25C4.91751 1.25 1 5.16751 1 10C1 14.8325 4.91751 18.75 9.75 18.75Z" stroke="#030102" stroke-miterlimit="10"/>
<path d="M6.05022 5.33333L4.69165 5.45219L5.37637 6.68745L6.80227 6.83732C6.37571 7.5074 6.31781 8.38587 6.72803 9.12593L9.95892 14.9546C10.5549 16.0298 11.9222 16.4218 12.9974 15.8259L12.9974 15.8259C14.0726 15.2299 14.4647 13.8626 13.8687 12.7874L10.6378 6.95871C10.2276 6.21866 9.4519 5.80224 8.65761 5.8089L9.28612 4.52024L8.60141 3.28498L7.77957 4.37559" stroke="black" stroke-miterlimit="10"/>
<path d="M7.60512 6.09795L6.64651 4.36858" stroke="black" stroke-miterlimit="10"/>
</svg>
