<svg width="19" height="20" viewBox="0 0 19 20" fill="none" xmlns="http://www.w3.org/2000/svg">
<path d="M9.76639 13.8899C9.76639 15.2254 9.76639 16.308 9.76639 16.308C9.76639 16.308 9.76639 15.2254 9.76639 13.8899ZM9.76639 13.8899C9.76639 12.5543 9.76639 11.4717 9.76639 11.4717C9.76639 11.4717 9.76639 12.5543 9.76639 13.8899Z" stroke="black" stroke-miterlimit="10"/>
<path d="M12.0891 16.308H7.44366" stroke="black" stroke-miterlimit="10"/>
<path d="M13.3802 7.84061H6.15457" stroke="black" stroke-miterlimit="10"/>
<path d="M9.54791 9.06813L13.9252 4.45599" stroke="black" stroke-miterlimit="10"/>
<path d="M9.7664 11.5766L4.47406 6.10538H15.0587L9.7664 11.5766Z" stroke="black" stroke-miterlimit="10"/>
<path d="M9.75 18.75C14.5825 18.75 18.5 14.8325 18.5 10C18.5 5.16751 14.5825 1.25 9.75 1.25C4.91751 1.25 1 5.16751 1 10C1 14.8325 4.91751 18.75 9.75 18.75Z" stroke="black" stroke-miterlimit="10"/>
</svg>
