<svg width="19" height="20" viewBox="0 0 19 20" fill="none" xmlns="http://www.w3.org/2000/svg">
<path d="M8.12438 12.7065C6.81648 12.7065 5.75623 11.6462 5.75623 10.3383C5.75623 9.03041 6.81648 7.97015 8.12438 7.97015" stroke="black" stroke-miterlimit="10"/>
<path d="M10.4859 15.0746H11.2854H11.8458C13.1537 15.0746 14.2139 14.0143 14.2139 12.7064C14.2139 11.3985 13.1537 10.3383 11.8458 10.3383C13.1537 10.3383 14.2139 9.27803 14.2139 7.97014C14.2139 6.66225 13.1537 5.60199 11.8458 5.60199H11.2854H6.9403C6.28906 5.60199 5.75623 6.13482 5.75623 6.78606V6.78607C5.75623 7.43731 6.28906 7.97014 6.9403 7.97014H11.8458" stroke="black" stroke-miterlimit="10"/>
<path d="M11.8458 12.7064H6.9403C6.28906 12.7064 5.75623 13.2393 5.75623 13.8905V13.8905C5.75623 14.5417 6.28906 15.0746 6.9403 15.0746H9.4743" stroke="black" stroke-miterlimit="10"/>
<path d="M11.8457 10.3383H8.12436" stroke="black" stroke-miterlimit="10"/>
<path d="M10.4925 3.23383H9.4776V5.60198H10.4925V3.23383Z" stroke="black" stroke-miterlimit="10"/>
<path d="M10.4925 7.97015H9.4776V10.3383H10.4925V7.97015Z" stroke="black" stroke-miterlimit="10"/>
<path d="M10.4925 12.7064H9.4776V16.7661H10.4925V12.7064Z" stroke="black" stroke-miterlimit="10"/>
<path d="M5.8002 7.10547C5.61576 6.77517 5.25626 6.60697 4.78528 6.78607C4.34034 6.9754 3.95479 6.79697 3.77036 6.46667" stroke="black" stroke-miterlimit="10"/>
<path d="M9.75 18.75C14.5825 18.75 18.5 14.8325 18.5 10C18.5 5.16751 14.5825 1.25 9.75 1.25C4.91751 1.25 1 5.16751 1 10C1 14.8325 4.91751 18.75 9.75 18.75Z" stroke="black" stroke-miterlimit="10"/>
</svg>
