<svg width="20" height="20" viewBox="0 0 20 20" fill="none" xmlns="http://www.w3.org/2000/svg">
<path d="M14.8112 13.7191L13.5504 11.1715L12.2897 13.7191L11.1551 11.4263L10.0204 13.7191L9.01181 12.1463L8.28392 13.0233H6.65168L7.20671 11.3908L8.28073 10.9414L6.99048 9.48101L9.52745 9.15192L7.72698 7.33453L10.5458 6.96887L8.54533 4.94957L7.65705 4.05294L5.3821 10.683L5.37769 10.6959L4.72114 12.6094L4.33871 13.7239L4.34333 13.7255C4.4578 13.3918 4.77405 13.1519 5.14654 13.1519C5.61554 13.1519 5.99573 13.5321 5.99573 14.0011C5.99573 14.4701 5.61558 14.8503 5.14662 14.8503L6.32487 14.8503H8.36144L15.371 14.8503L14.8112 13.7191Z" stroke="black" stroke-miterlimit="10"/>
<path d="M10 19.25C14.9706 19.25 19 15.2206 19 10.25C19 5.27944 14.9706 1.25 10 1.25C5.02944 1.25 1 5.27944 1 10.25C1 15.2206 5.02944 19.25 10 19.25Z" stroke="black" stroke-miterlimit="10"/>
</svg>
