<svg width="19" height="20" viewBox="0 0 19 20" fill="none" xmlns="http://www.w3.org/2000/svg">
<path d="M11.9379 16.1862H7.15039V8.72805C7.15039 7.5589 8.09817 6.61111 9.26732 6.61111H9.82099C10.9901 6.61111 11.9379 7.5589 11.9379 8.72805V16.1862V16.1862Z" stroke="black" stroke-miterlimit="10"/>
<path d="M10.1825 4.18207H8.90582V5.93749H10.1825V4.18207Z" stroke="black" stroke-miterlimit="10"/>
<path d="M10.6941 10.2487L8.39423 12.5486" stroke="black" stroke-miterlimit="10"/>
<path d="M10.6941 12.5486L8.39423 10.2487" stroke="black" stroke-miterlimit="10"/>
<path d="M12.6863 6.85036L11.1838 5.48486" stroke="black" stroke-miterlimit="10"/>
<path d="M11.1728 4.8774L12.6753 3.5119" stroke="black" stroke-miterlimit="10"/>
<path d="M11.9986 5.17609H14.1362" stroke="black" stroke-miterlimit="10"/>
<path d="M9.75 18.75C14.5825 18.75 18.5 14.8325 18.5 10C18.5 5.16751 14.5825 1.25 9.75 1.25C4.91751 1.25 1 5.16751 1 10C1 14.8325 4.91751 18.75 9.75 18.75Z" stroke="black" stroke-miterlimit="10"/>
</svg>
