<svg width="19" height="20" viewBox="0 0 19 20" fill="none" xmlns="http://www.w3.org/2000/svg">
<path d="M9.75 18.75C14.5825 18.75 18.5 14.8325 18.5 10C18.5 5.16751 14.5825 1.25 9.75 1.25C4.91751 1.25 1 5.16751 1 10C1 14.8325 4.91751 18.75 9.75 18.75Z" stroke="black" stroke-miterlimit="10"/>
<path d="M11.7321 5.25845H10.6699L10.6699 7.66776L14.2474 13.8641C14.7017 14.6509 14.1338 15.6345 13.2252 15.6345H6.27476C5.3662 15.6345 4.79835 14.6509 5.25263 13.8641L8.83008 7.66776V5.25845H7.76786" stroke="black" stroke-miterlimit="10"/>
<path d="M10.6699 4.27452C10.9958 4.27452 11.2601 4.01031 11.2601 3.6844C11.2601 3.35848 10.9958 3.09427 10.6699 3.09427C10.344 3.09427 10.0798 3.35848 10.0798 3.6844C10.0798 4.01031 10.344 4.27452 10.6699 4.27452Z" stroke="black" stroke-miterlimit="10"/>
<path d="M8.75076 11.8895C9.23964 11.8895 9.63595 11.4931 9.63595 11.0043C9.63595 10.5154 9.23964 10.1191 8.75076 10.1191C8.26188 10.1191 7.86557 10.5154 7.86557 11.0043C7.86557 11.4931 8.26188 11.8895 8.75076 11.8895Z" stroke="black" stroke-miterlimit="10"/>
<path d="M10.8761 13.8698H12.5651" stroke="black" stroke-width="1.09641" stroke-miterlimit="10"/>
<path d="M9.61966 12.7038H11.3087" stroke="black" stroke-width="1.09641" stroke-miterlimit="10"/>
<path d="M11.0933 14.8745C11.9702 14.8745 12.681 14.1636 12.681 13.2868C12.681 12.4099 11.9702 11.6991 11.0933 11.6991C10.2165 11.6991 9.50562 12.4099 9.50562 13.2868C9.50562 14.1636 10.2165 14.8745 11.0933 14.8745Z" stroke="black" stroke-miterlimit="10"/>
</svg>
