<svg width="19" height="20" viewBox="0 0 19 20" fill="none" xmlns="http://www.w3.org/2000/svg">
<path d="M9.75 18.75C14.5825 18.75 18.5 14.8325 18.5 10C18.5 5.16751 14.5825 1.25 9.75 1.25C4.91751 1.25 1 5.16751 1 10C1 14.8325 4.91751 18.75 9.75 18.75Z" stroke="black" stroke-miterlimit="10"/>
<path d="M9.74998 11.4804C10.5676 11.4804 11.2303 10.8176 11.2303 10C11.2303 9.18242 10.5676 8.51964 9.74998 8.51964C8.9324 8.51964 8.26962 9.18242 8.26962 10C8.26962 10.8176 8.9324 11.4804 9.74998 11.4804Z" stroke="black" stroke-miterlimit="10"/>
<path d="M4.84144 6.16194C4.35232 6.27645 3.99382 6.50123 3.81225 6.84275C3.40221 7.61386 3.98205 8.79905 5.20934 9.99997C5.55028 10.3335 5.94164 10.6679 6.37536 10.9953" stroke="black" stroke-miterlimit="10"/>
<path d="M6.79331 6.16356C6.52323 6.12084 6.26476 6.09288 6.02039 6.08002" stroke="black" stroke-miterlimit="10"/>
<path d="M11.2472 13.4931C10.3756 13.2267 9.44311 12.8449 8.50305 12.3452C8.32056 12.248 8.14795 12.1456 7.97302 12.0444" stroke="black" stroke-miterlimit="10"/>
<path d="M12.7067 13.8364C14.1832 14.0699 15.3127 13.8625 15.6879 13.1572C16.0978 12.3861 15.5179 11.2009 14.2906 9.99998C13.9498 9.66649 13.5583 9.33202 13.1246 9.00462" stroke="black" stroke-miterlimit="10"/>
<path d="M11.527 7.95555C11.352 7.85435 11.1794 7.75194 10.9969 7.65477C10.057 7.15501 9.12439 6.7733 8.25281 6.50682" stroke="black" stroke-miterlimit="10"/>
<path d="M6.79333 13.8364C5.31689 14.0701 4.18725 13.8625 3.81225 13.1572C3.40221 12.3861 3.98205 11.2008 5.20934 9.99998C5.55016 9.66649 5.94164 9.33202 6.37536 9.00462" stroke="black" stroke-miterlimit="10"/>
<path d="M14.8684 9.37933C14.6965 9.58437 14.5033 9.79194 14.2906 9.99998C13.9498 10.3336 13.5583 10.6679 13.1246 10.9953" stroke="black" stroke-miterlimit="10"/>
<path d="M12.7067 6.16355C14.1832 5.93003 15.3127 6.13743 15.6879 6.84275C15.9106 7.26175 15.8411 7.80304 15.5343 8.40265" stroke="black" stroke-miterlimit="10"/>
<path d="M7.89011 14.8009C7.39877 13.5805 7.09396 11.8804 7.09396 10C7.09396 6.2859 8.28312 3.27502 9.75001 3.27502C11.2169 3.27502 12.4061 6.2859 12.4061 10C12.4061 13.7141 11.2169 16.725 9.75001 16.725C9.27333 16.725 8.82598 16.407 8.43923 15.8503" stroke="black" stroke-miterlimit="10"/>
<path d="M8.17094 15.9214C8.49797 15.9214 8.76308 15.6563 8.76308 15.3293C8.76308 15.0023 8.49797 14.7372 8.17094 14.7372C7.84391 14.7372 7.5788 15.0023 7.5788 15.3293C7.5788 15.6563 7.84391 15.9214 8.17094 15.9214Z" stroke="black" stroke-miterlimit="10"/>
<path d="M5.43312 6.66408C5.76009 6.66408 6.02515 6.39902 6.02515 6.07205C6.02515 5.74509 5.76009 5.48003 5.43312 5.48003C5.10615 5.48003 4.84109 5.74509 4.84109 6.07205C4.84109 6.39902 5.10615 6.66408 5.43312 6.66408Z" stroke="black" stroke-miterlimit="10"/>
<path d="M15.1968 9.48428C15.5238 9.48428 15.7888 9.21923 15.7888 8.89226C15.7888 8.56529 15.5238 8.30023 15.1968 8.30023C14.8698 8.30023 14.6048 8.56529 14.6048 8.89226C14.6048 9.21923 14.8698 9.48428 15.1968 9.48428Z" stroke="black" stroke-miterlimit="10"/>
</svg>
