<svg width="19" height="20" viewBox="0 0 19 20" fill="none" xmlns="http://www.w3.org/2000/svg">
<path d="M9.75 18.75C14.5825 18.75 18.5 14.8325 18.5 10C18.5 5.16751 14.5825 1.25 9.75 1.25C4.91751 1.25 1 5.16751 1 10C1 14.8325 4.91751 18.75 9.75 18.75Z" stroke="black" stroke-miterlimit="10"/>
<path d="M7.06564 15.9294C7.61237 15.9294 8.05559 15.4862 8.05559 14.9394C8.05559 14.3927 7.61237 13.9495 7.06564 13.9495C6.5189 13.9495 6.07568 14.3927 6.07568 14.9394C6.07568 15.4862 6.5189 15.9294 7.06564 15.9294Z" stroke="black" stroke-miterlimit="10"/>
<path d="M12.4344 15.9294C12.9811 15.9294 13.4243 15.4862 13.4243 14.9394C13.4243 14.3927 12.9811 13.9495 12.4344 13.9495C11.8876 13.9495 11.4444 14.3927 11.4444 14.9394C11.4444 15.4862 11.8876 15.9294 12.4344 15.9294Z" stroke="black" stroke-miterlimit="10"/>
<path d="M5.75616 13.141H13.7438" stroke="black" stroke-miterlimit="10"/>
<path d="M14.8481 6.15644H13.5501L13.2633 5.01909H11.5014L9.74661 4.07059L7.99187 5.01909H6.22992L5.94315 6.15644H4.64514L3.82257 7.57023L5.28221 12.241H14.2371L15.6774 7.57023L14.8481 6.15644Z" stroke="black" stroke-miterlimit="10"/>
<path d="M3.82257 7.57022H15.6774" stroke="black" stroke-miterlimit="10"/>
</svg>
