<svg width="18" height="18" viewBox="0 0 18 18" fill="none" xmlns="http://www.w3.org/2000/svg">
<g clip-path="url(#clip0_105_4984)">
<path d="M9 17.75C13.8325 17.75 17.75 13.8325 17.75 9C17.75 4.16751 13.8325 0.25 9 0.25C4.16751 0.25 0.25 4.16751 0.25 9C0.25 13.8325 4.16751 17.75 9 17.75Z" stroke="black" stroke-miterlimit="10"/>
<path d="M9.58938 9.00742V9.33379C9.58938 9.87231 9.14876 10.3129 8.61024 10.3129L7.31277 10.3129" stroke="black" stroke-miterlimit="10"/>
<path d="M14.4231 7.73322H7.61957" stroke="black" stroke-miterlimit="10"/>
<path d="M7.58052 9L6.69506 13.4521H4.13448C3.76706 13.4521 3.49755 13.1066 3.58691 12.7502L4.34742 8.94142C4.39973 8.67947 4.19935 8.43513 3.93223 8.43513H3.56967L3.56968 6.15753C3.56968 5.97727 3.71581 5.83115 3.89607 5.83115H14.86L14.86 7.73322H14.4231L14.4231 8.68103C14.4231 8.86129 14.2769 9.00741 14.0967 9.00741L7.58052 9Z" stroke="black" stroke-miterlimit="10"/>
</g>
<defs>
<clipPath id="clip0_105_4984">
<rect width="18" height="18" fill="white"/>
</clipPath>
</defs>
</svg>
