<svg width="19" height="20" viewBox="0 0 19 20" fill="none" xmlns="http://www.w3.org/2000/svg">
<path d="M9.75 18.75C14.5825 18.75 18.5 14.8325 18.5 10C18.5 5.16751 14.5825 1.25 9.75 1.25C4.91751 1.25 1 5.16751 1 10C1 14.8325 4.91751 18.75 9.75 18.75Z" stroke="black" stroke-miterlimit="10"/>
<path d="M14.9718 6.81415H4.52823V14.2099H14.9718V6.81415Z" stroke="black" stroke-miterlimit="10"/>
<path d="M12.5145 15.3217H6.98553" stroke="black" stroke-miterlimit="10"/>
<path d="M11.7092 4.35797L9.64484 6.80024L7.7908 5.31584" stroke="black" stroke-miterlimit="10" stroke-linejoin="round"/>
<path d="M8.01984 9.40533L5.80652 11.6187" stroke="black" stroke-miterlimit="10"/>
<path d="M8.01984 11.6187L5.80652 9.40533" stroke="black" stroke-miterlimit="10"/>
<path d="M10.8567 9.40533L8.64334 11.6187" stroke="black" stroke-miterlimit="10"/>
<path d="M10.8567 11.6187L8.64334 9.40533" stroke="black" stroke-miterlimit="10"/>
<path d="M13.6935 9.40533L11.4802 11.6187" stroke="black" stroke-miterlimit="10"/>
<path d="M13.6935 11.6187L11.4802 9.40533" stroke="black" stroke-miterlimit="10"/>
</svg>
