<svg width="19" height="20" viewBox="0 0 19 20" fill="none" xmlns="http://www.w3.org/2000/svg">
<path d="M9.75 18.75C14.5825 18.75 18.5 14.8325 18.5 10C18.5 5.16751 14.5825 1.25 9.75 1.25C4.91751 1.25 1 5.16751 1 10C1 14.8325 4.91751 18.75 9.75 18.75Z" stroke="black" stroke-miterlimit="10"/>
<path d="M14.3 4.55C13.1 4.4 11.85 4.75 10.95 5.65C10.05 6.55 9.65 7.8 9.85 9L14.3 4.55Z" stroke="black" stroke-miterlimit="10"/>
<path d="M5.20001 4.55C6.40001 4.4 7.65001 4.75 8.55001 5.65C9.45001 6.55 9.85001 7.8 9.65001 9L5.20001 4.55Z" stroke="black" stroke-miterlimit="10"/>
<path d="M16.05 9.3C15.35 8.35 14.25 7.75 13 7.75C11.75 7.75 10.65 8.35 9.95001 9.3H16.05Z" stroke="black" stroke-miterlimit="10"/>
<path d="M3.45001 9.3C4.15001 8.35 5.25001 7.75 6.50001 7.75C7.75001 7.75 8.85001 8.35 9.55001 9.3H3.45001Z" stroke="black" stroke-miterlimit="10"/>
<path d="M9.75002 10.2L11.5 14.35C11.6 14.6 11.7 14.9 11.7 15.2C11.7 16.3 10.85 17.2 9.75002 17.2C8.70002 17.2 7.80002 16.3 7.80002 15.2C7.80002 14.9 7.90002 14.6 8.00002 14.35L9.75002 10.2Z" stroke="black" stroke-miterlimit="10"/>
<path d="M9.75 15.55L11.3 14" stroke="black" stroke-miterlimit="10"/>
<path d="M9.75 13.5L10.65 12.6" stroke="black" stroke-miterlimit="10"/>
</svg>
