<?xml version="1.0" encoding="utf-8"?>
<!-- Generator: Adobe Illustrator 23.1.1, SVG Export Plug-In . SVG Version: 6.00 Build 0)  -->
<svg version="1.1" id="Layer_1" xmlns="http://www.w3.org/2000/svg" xmlns:xlink="http://www.w3.org/1999/xlink" x="0px" y="0px"
	 viewBox="0 0 46.5 46.5" style="enable-background:new 0 0 46.5 46.5;" xml:space="preserve">
<style type="text/css">
	.st0{fill:none;stroke:#63943D;stroke-miterlimit:10;}
	.st1{fill:none;stroke:#629440;stroke-miterlimit:10;}
</style>
<g>
	<circle class="st0" cx="23.2" cy="23.2" r="22.5"/>
	<path class="st0" d="M35.3,29.5c-1.4,0-2.6-1.1-2.6-2.6c0,1.4-1.1,2.6-2.6,2.6c-1.4,0-2.6-1.1-2.6-2.6l0,0c0,1.4-1.1,2.6-2.6,2.6
		c-1.4,0-2.6-1.1-2.6-2.6c0,1.4-1.1,2.6-2.6,2.6c-1.4,0-2.6-1.1-2.6-2.6c0,1.4-1.1,2.6-2.6,2.6s-2.3-1.1-2.3-2.5
		c0,1.4-1.1,2.6-2.6,2.6"/>
	<path class="st1" d="M25,23.1c0-5.2,4.2-9.4,9.4-9.4C34.5,19,30.2,23.1,25,23.1z M25,20c0-5.1-4.1-9.2-9.2-9.2
		C15.9,15.9,20,20,25,20z M25,20v13.4"/>
</g>
</svg>
