<svg width="20" height="20" viewBox="0 0 20 20" fill="none" xmlns="http://www.w3.org/2000/svg">
<path d="M18.6327 1.18367H1V18.8163H18.6327V1.18367Z" stroke="black" stroke-miterlimit="10"/>
<path d="M6.03777 12.9917L4.51144 4.72233H3.37634" stroke="black" stroke-miterlimit="10"/>
<path d="M4.87878 6.39633L16.2335 7.47412L15.7001 10.6715L7.1005 11.3092" stroke="black" stroke-miterlimit="10"/>
<path d="M14.5672 16.0836C15.2274 16.0836 15.7626 15.5485 15.7626 14.8883C15.7626 14.2281 15.2274 13.6929 14.5672 13.6929C13.907 13.6929 13.3719 14.2281 13.3719 14.8883C13.3719 15.5485 13.907 16.0836 14.5672 16.0836Z" stroke="black" stroke-miterlimit="10"/>
<path d="M6.33643 16.0836C6.9966 16.0836 7.53178 15.5485 7.53178 14.8883C7.53178 14.2281 6.9966 13.6929 6.33643 13.6929C5.67626 13.6929 5.14108 14.2281 5.14108 14.8883C5.14108 15.5485 5.67626 16.0836 6.33643 16.0836Z" stroke="black" stroke-miterlimit="10"/>
<path d="M8.50818 14.8883H12.4068" stroke="black" stroke-miterlimit="10"/>
</svg>
