<svg width="20" height="20" viewBox="0 0 20 20" fill="none" xmlns="http://www.w3.org/2000/svg">
<path d="M2.16302 15.083L2.52669 12.6842C2.52669 12.3867 2.74233 12.1549 3.02224 12.1549H5.91804C6.19833 12.1549 6.41359 12.3867 6.41359 12.6842L6.77726 15.083M9.4251 11.0602L9.05996 8.64449C9.05996 8.36384 8.8458 8.13204 8.58057 8.13204H5.67008C5.40486 8.13204 5.17306 8.36384 5.17306 8.64449L4.80939 11.0602M12.0862 7.00392L11.7225 4.60514C11.7225 4.32449 11.4907 4.0758 11.2269 4.0758H8.31498C8.05086 4.0758 7.83559 4.32412 7.83559 4.60514L7.47192 7.00392M12.0862 15.083L11.7225 12.6842C11.7225 12.3867 11.4907 12.1549 11.2269 12.1549H8.31498C8.05086 12.1549 7.83559 12.3867 7.83559 12.6842L7.47192 15.083M14.734 11.0602L14.3703 8.64449C14.3703 8.36384 14.1547 8.13204 13.8909 8.13204H10.979C10.6976 8.13204 10.4834 8.36384 10.4834 8.64449L10.1183 11.0602M17.3789 15.083L17.0152 12.6842C17.0152 12.3867 16.8011 12.1549 16.5197 12.1549H13.6253C13.344 12.1549 13.1283 12.3867 13.1283 12.6842L12.7647 15.083M18.6327 1.18367H1V18.8163H18.6327V1.18367Z" stroke="black" stroke-miterlimit="10"/>
</svg>
