<svg width="20" height="20" viewBox="0 0 20 20" fill="none" xmlns="http://www.w3.org/2000/svg">
<path d="M2.74234 12.9094H1.98303C1.98303 12.2298 2.01683 8.8829 5.92724 8.40241C5.97573 8.21947 6.93781 4.42441 10.9819 4.42441C14.2638 4.42441 15.9371 6.96057 16.1193 8.84984C16.3676 8.96592 17.2959 9.46331 17.2959 10.8552V12.9098H16.0693" stroke="black" stroke-miterlimit="10"/>
<path d="M7.34961 12.9094H11.3875" stroke="black" stroke-miterlimit="10"/>
<path d="M10.1697 8.15334V5.63481C8.67719 5.75089 7.56817 6.89371 7.35217 8.15334H10.1697V8.15334Z" stroke="black" stroke-miterlimit="10"/>
<path d="M11.1807 5.56795V8.15334H14.5772C14.3127 6.61232 12.9039 5.55179 11.4628 5.55179C11.3629 5.55179 11.2629 5.55179 11.1807 5.56795V5.56795Z" stroke="black" stroke-miterlimit="10"/>
<path d="M18.6327 1.18367H1V18.8163H18.6327V1.18367Z" stroke="black" stroke-miterlimit="10"/>
<path d="M4.98355 14.3354C5.79507 14.3354 6.45294 13.6776 6.45294 12.866C6.45294 12.0545 5.79507 11.3967 4.98355 11.3967C4.17203 11.3967 3.51416 12.0545 3.51416 12.866C3.51416 13.6776 4.17203 14.3354 4.98355 14.3354Z" stroke="black" stroke-miterlimit="10"/>
<path d="M13.7539 14.3354C14.5655 14.3354 15.2233 13.6776 15.2233 12.866C15.2233 12.0545 14.5655 11.3967 13.7539 11.3967C12.9424 11.3967 12.2845 12.0545 12.2845 12.866C12.2845 13.6776 12.9424 14.3354 13.7539 14.3354Z" stroke="black" stroke-miterlimit="10"/>
</svg>
