<svg width="20" height="20" viewBox="0 0 20 20" fill="none" xmlns="http://www.w3.org/2000/svg">
<path d="M18.6327 1.18369H1V18.8163H18.6327V1.18369Z" stroke="black" stroke-miterlimit="10"/>
<path d="M12.9424 4.12797L12.7771 1.79568H11.9998L11.8345 3.88001H7.64971C7.26363 3.88001 6.93559 4.01226 6.66559 4.27711C6.39522 4.5416 6.26041 4.86707 6.26041 5.25315V16.2857C6.26041 16.4841 6.29604 16.6663 6.36804 16.8316C6.43967 16.9969 6.53886 17.1431 6.66596 17.2698C6.79269 17.3962 6.94147 17.4957 7.11265 17.5674C7.28347 17.639 7.46273 17.675 7.65008 17.675H11.5539C11.9396 17.675 12.2676 17.5398 12.538 17.2698C12.808 16.9994 12.9432 16.6714 12.9432 16.2857V4.12797H12.9424ZM11.7104 8.11442C11.6384 8.28009 11.5421 8.4263 11.4209 8.55266C11.2993 8.67977 11.1535 8.77895 10.9827 8.85022C10.8115 8.92222 10.6326 8.95785 10.4449 8.95785H8.75763C8.56992 8.95785 8.39065 8.92222 8.2202 8.85022C8.04902 8.77858 7.90024 8.6794 7.77351 8.55266C7.64677 8.4263 7.54722 8.27973 7.47596 8.11442C7.40432 7.94911 7.36833 7.76728 7.36833 7.56854V6.3776C7.36833 5.99189 7.50314 5.66385 7.77351 5.39348C8.04388 5.12311 8.37155 4.9883 8.75763 4.9883H10.4449C10.8306 4.9883 11.156 5.12348 11.4209 5.39348C11.6858 5.66385 11.818 5.99189 11.818 6.3776V7.56854C11.818 7.76691 11.782 7.94911 11.7104 8.11442Z" stroke="black" stroke-miterlimit="10"/>
<path d="M8.02146 11.0649C8.0953 11.1377 8.1324 11.2236 8.1324 11.3236C8.1324 11.4235 8.0953 11.5094 8.02146 11.5822C7.94762 11.6549 7.85983 11.6909 7.75844 11.6909C7.65705 11.6909 7.57109 11.6549 7.50203 11.5822C7.4326 11.5098 7.39807 11.4235 7.39807 11.3236C7.39807 11.2236 7.4326 11.1377 7.50203 11.0649C7.57146 10.9926 7.65668 10.9562 7.75844 10.9562C7.86019 10.9562 7.94762 10.9926 8.02146 11.0649Z" fill="black"/>
<path d="M8.02146 12.6963C8.0953 12.7705 8.1324 12.858 8.1324 12.9597C8.1324 13.0615 8.0953 13.1467 8.02146 13.2161C7.94762 13.2852 7.85983 13.3201 7.75844 13.3201C7.65705 13.3201 7.57109 13.2852 7.50203 13.2161C7.4326 13.1467 7.39807 13.0615 7.39807 12.9597C7.39807 12.858 7.4326 12.7705 7.50203 12.6963C7.57146 12.6225 7.65668 12.5854 7.75844 12.5854C7.86019 12.5854 7.94762 12.6225 8.02146 12.6963Z" fill="black"/>
<path d="M8.02146 14.327C8.0953 14.3964 8.1324 14.482 8.1324 14.5834C8.1324 14.6848 8.0953 14.7729 8.02146 14.8468C7.94762 14.921 7.85983 14.9577 7.75844 14.9577C7.65705 14.9577 7.57109 14.921 7.50203 14.8468C7.4326 14.7729 7.39807 14.6851 7.39807 14.5834C7.39807 14.4816 7.4326 14.3964 7.50203 14.327C7.57146 14.2579 7.65668 14.223 7.75844 14.223C7.86019 14.223 7.94762 14.2579 8.02146 14.327Z" fill="black"/>
<path d="M9.89274 11.0649C9.96511 11.1377 10.0015 11.2236 10.0015 11.3236C10.0015 11.4235 9.96511 11.5094 9.89274 11.5822C9.82001 11.6549 9.73405 11.6909 9.63413 11.6909C9.53421 11.6909 9.44789 11.6549 9.37552 11.5822C9.30278 11.5098 9.26678 11.4235 9.26678 11.3236C9.26678 11.2236 9.30315 11.1377 9.37552 11.0649C9.44789 10.9926 9.53421 10.9562 9.63413 10.9562C9.73405 10.9562 9.82001 10.9926 9.89274 11.0649Z" fill="black"/>
<path d="M9.89274 12.6963C9.96511 12.7705 10.0015 12.858 10.0015 12.9597C10.0015 13.0615 9.96511 13.1467 9.89274 13.2161C9.82001 13.2852 9.73405 13.3201 9.63413 13.3201C9.53421 13.3201 9.44789 13.2852 9.37552 13.2161C9.30278 13.1467 9.26678 13.0615 9.26678 12.9597C9.26678 12.858 9.30315 12.7705 9.37552 12.6963C9.44789 12.6225 9.53421 12.5854 9.63413 12.5854C9.73405 12.5854 9.82001 12.6225 9.89274 12.6963Z" fill="black"/>
<path d="M9.89274 14.327C9.96511 14.3964 10.0015 14.482 10.0015 14.5834C10.0015 14.6848 9.96511 14.7729 9.89274 14.8468C9.82001 14.921 9.73405 14.9577 9.63413 14.9577C9.53421 14.9577 9.44789 14.921 9.37552 14.8468C9.30278 14.7729 9.26678 14.6851 9.26678 14.5834C9.26678 14.4816 9.30315 14.3964 9.37552 14.327C9.44789 14.2579 9.53421 14.223 9.63413 14.223C9.73405 14.223 9.82001 14.2579 9.89274 14.327Z" fill="black"/>
<path d="M11.7126 11.0649C11.7849 11.1377 11.8213 11.2236 11.8213 11.3236C11.8213 11.4235 11.7849 11.5094 11.7126 11.5822C11.6402 11.6549 11.5539 11.6909 11.454 11.6909C11.354 11.6909 11.2681 11.6549 11.1953 11.5822C11.1226 11.5098 11.0866 11.4235 11.0866 11.3236C11.0866 11.2236 11.1226 11.1377 11.1953 11.0649C11.2677 10.9926 11.3537 10.9562 11.454 10.9562C11.5542 10.9562 11.6398 10.9926 11.7126 11.0649Z" fill="black"/>
<path d="M11.7126 12.6963C11.7849 12.7705 11.8213 12.858 11.8213 12.9597C11.8213 13.0615 11.7849 13.1467 11.7126 13.2161C11.6398 13.2852 11.5539 13.3201 11.454 13.3201C11.354 13.3201 11.2681 13.2852 11.1953 13.2161C11.1226 13.1467 11.0866 13.0615 11.0866 12.9597C11.0866 12.858 11.1226 12.7705 11.1953 12.6963C11.2677 12.6225 11.3537 12.5854 11.454 12.5854C11.5542 12.5854 11.6398 12.6225 11.7126 12.6963Z" fill="black"/>
<path d="M11.7126 14.327C11.7849 14.3964 11.8213 14.482 11.8213 14.5834C11.8213 14.6848 11.7849 14.7729 11.7126 14.8468C11.6402 14.9206 11.5539 14.9577 11.454 14.9577C11.354 14.9577 11.2681 14.921 11.1953 14.8468C11.1226 14.7729 11.0866 14.6851 11.0866 14.5834C11.0866 14.4816 11.1226 14.3964 11.1953 14.327C11.2677 14.2579 11.3537 14.223 11.454 14.223C11.5542 14.223 11.6398 14.2579 11.7126 14.327Z" fill="black"/>
</svg>
