<svg width="20" height="20" viewBox="0 0 20 20" fill="none" xmlns="http://www.w3.org/2000/svg">
<path d="M18.6327 18.8163H1V1.18369H18.6327V18.8163ZM16.4286 10.9603L14.7906 11.2909C14.6804 11.7633 14.4754 12.1721 14.2241 12.5817L15.1844 13.9674L13.7833 15.3365L12.3988 14.439C12.0039 14.6903 11.595 14.8325 11.1388 14.9596L10.8401 16.6119H8.85571L8.5251 14.9596C8.06886 14.8328 7.62767 14.6444 7.18686 14.3762L5.81775 15.3365L4.46408 13.9674L5.37657 12.5501C5.12531 12.1567 4.98314 11.7633 4.85751 11.3063L3.20408 10.9603V8.99275L4.82555 8.69336C4.96661 8.23711 5.12567 7.81209 5.36151 7.43409L4.46408 6.03303L5.81775 4.63197L7.18686 5.59222C7.62767 5.32479 8.06886 5.1514 8.5251 5.04156L8.85571 3.3885H10.8401L11.1388 5.04156C11.595 5.15103 12.0039 5.32479 12.3988 5.57679L13.7833 4.63197L15.1844 6.03303L14.2241 7.38671C14.4754 7.78013 14.6649 8.23711 14.7751 8.69336L16.4286 8.99275V10.9603V10.9603ZM9.82514 8.11773C8.78408 8.11773 7.9322 8.93728 7.9322 9.98862C7.9322 11.04 8.78408 11.8816 9.82514 11.8816C10.8662 11.8816 11.685 11.0403 11.685 9.98862C11.685 8.93691 10.8655 8.11773 9.82514 8.11773Z" stroke="black" stroke-miterlimit="10"/>
</svg>
