<svg width="20" height="20" viewBox="0 0 20 20" fill="none" xmlns="http://www.w3.org/2000/svg">
<path d="M6.58441 12.1964C6.65237 12.2647 6.68727 12.3532 6.68727 12.4609C6.68727 12.5685 6.65274 12.657 6.58441 12.7253C6.51498 12.7948 6.42682 12.8282 6.31919 12.8282C6.21156 12.8282 6.12339 12.7948 6.05507 12.7253C5.98711 12.657 5.95221 12.5685 5.95221 12.4609C5.95221 12.3532 5.98674 12.2647 6.05507 12.1964C6.12339 12.128 6.21156 12.0935 6.31919 12.0935C6.42682 12.0935 6.51498 12.128 6.58441 12.1964Z" fill="black"/>
<path d="M6.58441 13.7377C6.65237 13.8061 6.68727 13.8946 6.68727 14.0022C6.68727 14.1099 6.65274 14.1984 6.58441 14.2667C6.51498 14.3362 6.42682 14.3696 6.31919 14.3696C6.21156 14.3696 6.12339 14.3362 6.05507 14.2667C5.98711 14.1984 5.95221 14.1099 5.95221 14.0022C5.95221 13.8946 5.98674 13.8061 6.05507 13.7377C6.12339 13.6694 6.21156 13.6349 6.31919 13.6349C6.42682 13.6349 6.51498 13.6694 6.58441 13.7377Z" fill="black"/>
<path d="M8.31827 12.1964C8.38513 12.2647 8.41893 12.3532 8.41893 12.4609C8.41893 12.5685 8.38476 12.657 8.31827 12.7253C8.25032 12.7948 8.16472 12.8282 8.05929 12.8282C7.95276 12.8282 7.8646 12.7948 7.79223 12.7253C7.7206 12.657 7.6846 12.5685 7.6846 12.4609C7.6846 12.3532 7.72097 12.2647 7.79223 12.1964C7.86497 12.128 7.95276 12.0935 8.05929 12.0935C8.16472 12.0935 8.25032 12.128 8.31827 12.1964Z" fill="black"/>
<path d="M8.31827 13.7377C8.38513 13.8061 8.41893 13.8946 8.41893 14.0022C8.41893 14.1099 8.38476 14.1984 8.31827 14.2667C8.25032 14.3362 8.16472 14.3696 8.05929 14.3696C7.95276 14.3696 7.8646 14.3362 7.79223 14.2667C7.7206 14.1984 7.6846 14.1099 7.6846 14.0022C7.6846 13.8946 7.72097 13.8061 7.79223 13.7377C7.86497 13.6694 7.95276 13.6349 8.05929 13.6349C8.16472 13.6349 8.25032 13.6694 8.31827 13.7377Z" fill="black"/>
<path d="M10.0808 12.1964C10.1502 12.2647 10.1837 12.3532 10.1837 12.4609C10.1837 12.5685 10.1502 12.657 10.0808 12.7253C10.0125 12.7948 9.92395 12.8282 9.81632 12.8282C9.70869 12.8282 9.62016 12.7948 9.55183 12.7253C9.48351 12.657 9.44897 12.5685 9.44897 12.4609C9.44897 12.3532 9.48351 12.2647 9.55183 12.1964C9.62016 12.128 9.70869 12.0935 9.81632 12.0935C9.92395 12.0935 10.0125 12.128 10.0808 12.1964Z" fill="black"/>
<path d="M10.0808 13.7377C10.1502 13.8061 10.1837 13.8946 10.1837 14.0022C10.1837 14.1099 10.1502 14.1984 10.0808 14.2667C10.0125 14.3362 9.92395 14.3696 9.81632 14.3696C9.70869 14.3696 9.62016 14.3362 9.55183 14.2667C9.48351 14.1984 9.44897 14.1099 9.44897 14.0022C9.44897 13.8946 9.48351 13.8061 9.55183 13.7377C9.62016 13.6694 9.70869 13.6349 9.81632 13.6349C9.92395 13.6349 10.0125 13.6694 10.0808 13.7377Z" fill="black"/>
<path d="M11.8213 12.1964C11.8893 12.2647 11.9241 12.3532 11.9241 12.4609C11.9241 12.5685 11.8896 12.657 11.8213 12.7253C11.7519 12.7948 11.6648 12.8282 11.5561 12.8282C11.4484 12.8282 11.3603 12.7948 11.2919 12.7253C11.224 12.657 11.1891 12.5685 11.1891 12.4609C11.1891 12.3532 11.2236 12.2647 11.2919 12.1964C11.3603 12.128 11.4484 12.0935 11.5561 12.0935C11.6648 12.0935 11.7519 12.128 11.8213 12.1964Z" fill="black"/>
<path d="M11.8213 13.7377C11.8893 13.8061 11.9241 13.8946 11.9241 14.0022C11.9241 14.1099 11.8896 14.1984 11.8213 14.2667C11.7519 14.3362 11.6648 14.3696 11.5561 14.3696C11.4484 14.3696 11.3603 14.3362 11.2919 14.2667C11.224 14.1984 11.1891 14.1099 11.1891 14.0022C11.1891 13.8946 11.2236 13.8061 11.2919 13.7377C11.3603 13.6694 11.4484 13.6349 11.5561 13.6349C11.6648 13.6349 11.7519 13.6694 11.8213 13.7377Z" fill="black"/>
<path d="M13.561 12.1964C13.629 12.2647 13.6639 12.3532 13.6639 12.4609C13.6639 12.5685 13.6294 12.657 13.561 12.7253C13.4916 12.7948 13.4045 12.8282 13.2969 12.8282C13.1882 12.8282 13.1011 12.7948 13.0328 12.7253C12.9634 12.657 12.9288 12.5685 12.9288 12.4609C12.9288 12.3532 12.9634 12.2647 13.0328 12.1964C13.1008 12.128 13.1882 12.0935 13.2969 12.0935C13.4045 12.0935 13.4916 12.128 13.561 12.1964Z" fill="black"/>
<path d="M13.561 13.7377C13.629 13.8061 13.6639 13.8946 13.6639 14.0022C13.6639 14.1099 13.6294 14.1984 13.561 14.2667C13.4916 14.3362 13.4045 14.3696 13.2969 14.3696C13.1882 14.3696 13.1011 14.3362 13.0328 14.2667C12.9634 14.1984 12.9288 14.1099 12.9288 14.0022C12.9288 13.8946 12.9634 13.8061 13.0328 13.7377C13.1008 13.6694 13.1882 13.6349 13.2969 13.6349C13.4045 13.6349 13.4916 13.6694 13.561 13.7377Z" fill="black"/>
<path d="M15.9312 12.9244C15.9312 12.671 15.8434 12.4524 15.6667 12.2702C15.49 12.088 15.2744 11.9965 15.0205 11.9965H14.7711V3.97624C14.7711 3.7213 14.6807 3.50677 14.4985 3.33008C14.3152 3.15338 14.0981 3.06448 13.8432 3.06448H5.77293C5.51799 3.06448 5.30346 3.15338 5.12677 3.33008C4.95007 3.50677 4.86117 3.7213 4.86117 3.97624V11.9969H4.59558C4.34211 11.9969 4.12354 12.0887 3.94134 12.2706C3.75913 12.4524 3.66766 12.671 3.66766 12.9248V15.8257C3.66766 16.0792 3.7595 16.2952 3.94134 16.4719C4.12317 16.6486 4.34175 16.7375 4.59558 16.7375H15.0209C15.2744 16.7375 15.4904 16.6486 15.6671 16.4719C15.8437 16.2952 15.9315 16.0796 15.9315 15.8257V12.9248L15.9312 12.9244Z" stroke="black" stroke-miterlimit="10"/>
<path d="M13.0236 10.2986C12.8848 10.436 12.7228 10.5051 12.5339 10.5051H7.08252C6.8937 10.5051 6.73464 10.4364 6.60092 10.2986C6.46868 10.1598 6.40256 9.99778 6.40256 9.80897V5.30199C6.40256 5.11464 6.46868 4.95117 6.60092 4.81231C6.73427 4.67493 6.8937 4.60587 7.08252 4.60587H12.5339C12.7228 4.60587 12.8848 4.67456 13.0236 4.81231C13.161 4.95117 13.2312 5.11427 13.2312 5.30199V9.80933C13.2312 9.99815 13.161 10.1602 13.0236 10.299V10.2986Z" stroke="black" stroke-miterlimit="10"/>
<path d="M18.6327 1.18369H1V18.8163H18.6327V1.18369Z" stroke="black" stroke-miterlimit="10"/>
</svg>
