<svg width="20" height="20" viewBox="0 0 20 20" fill="none" xmlns="http://www.w3.org/2000/svg">
<path d="M5.88424 13.2437H3.9002V8.01669M10.8633 6.82538H4.62755V12.4168H5.83429M11.1821 12.4168H16.2882V6.82538H15.2134M15.1972 13.2437H12.3606M8.65367 15.1267C8.82963 15.8166 9.44861 16.3378 10.2028 16.3378C11.0796 16.3378 11.8081 15.6101 11.8081 14.7333C11.8081 13.9795 11.2864 13.3601 10.5969 13.1842M8.16657 11.0936C7.27355 11.0936 6.56237 11.8048 6.56237 12.6978C6.56237 13.5746 7.27355 14.3024 8.16657 14.3024C9.04343 14.3024 9.77188 13.5743 9.77188 12.6978C9.77188 11.8048 9.04306 11.0936 8.16657 11.0936V11.0936ZM10.7476 6.56089C9.87069 6.56089 9.14335 7.28898 9.14335 8.16547C9.14335 9.05849 9.87069 9.77004 10.7476 9.77004C11.6406 9.77004 12.3518 9.05812 12.3518 8.16547C12.3518 7.28861 11.6406 6.56089 10.7476 6.56089V6.56089ZM18.6327 1.18367H1V18.8163H18.6327V1.18367Z" stroke="black" stroke-miterlimit="10"/>
</svg>
