<svg width="20" height="20" viewBox="0 0 20 20" fill="none" xmlns="http://www.w3.org/2000/svg">
<path d="M7.28273 15.8765C7.04286 15.7145 6.81914 15.5297 6.61526 15.3258C6.41139 15.1219 6.22661 14.8982 6.06461 14.6583C5.90261 14.4185 5.76302 14.1621 5.64878 13.8921C5.53453 13.6221 5.446 13.3388 5.38612 13.0453C5.32624 12.7518 5.29465 12.4476 5.29465 12.1361C5.29465 11.8246 5.32624 11.5208 5.38612 11.2269C5.446 10.9331 5.5349 10.6502 5.64878 10.3802C5.76265 10.1102 5.90261 9.85381 6.06461 9.61393C6.22661 9.37405 6.41139 9.15034 6.61526 8.94646C6.81914 8.74258 7.04286 8.55781 7.28273 8.39581C7.33416 8.35724 7.3911 8.30801 7.44106 8.26687C7.49102 8.22573 7.53914 8.18385 7.5869 8.1405C7.63465 8.09715 7.68094 8.05271 7.72649 8.00752C7.77204 7.96234 7.81649 7.91568 7.85947 7.86793C7.90245 7.82017 7.94469 7.77168 7.98584 7.72209C8.02698 7.6725 8.06665 7.62181 8.10522 7.57038C8.1438 7.51895 8.18126 7.46642 8.21726 7.41279C8.25326 7.35915 8.28816 7.30479 8.32196 7.24969C8.35575 7.19458 8.38771 7.13838 8.41857 7.08144C8.44943 7.0245 8.47918 6.96683 8.50747 6.90805C8.53575 6.84928 8.56257 6.79013 8.58792 6.72989C8.61326 6.66964 8.63751 6.60903 8.65992 6.54732C8.68233 6.4856 8.70363 6.42352 8.7231 6.36071C8.74257 6.29789 8.76057 6.23434 8.7771 6.17005C8.79363 6.10577 8.80869 6.04111 8.82192 5.97573C8.83514 5.91034 8.84726 5.84422 8.85718 5.77773C8.8671 5.71124 8.87592 5.64401 8.8829 5.57642C8.88988 5.50883 8.89502 5.44087 8.89833 5.37217C8.90163 5.30348 8.90347 5.23479 8.90347 5.16536C8.90347 5.09593 8.90163 5.02687 8.89833 4.95854C8.89502 4.89022 8.88951 4.82189 8.8829 4.7543C8.87629 4.68671 8.86747 4.61948 8.85718 4.55299C8.8469 4.4865 8.83514 4.42038 8.82192 4.35499C8.80869 4.2896 8.79363 4.22458 8.7771 4.16066C8.76057 4.09675 8.74257 4.03283 8.7231 3.97001C8.70363 3.9072 8.68233 3.84475 8.65992 3.7834C8.63751 3.72205 8.61326 3.66107 8.58792 3.60083C8.56257 3.54058 8.53575 3.48144 8.50747 3.42266C9.63596 3.89985 10.6998 4.61397 11.5531 5.46732C12.4065 6.32066 13.0971 7.33675 13.5743 8.46524C14.0515 9.59373 14.3156 10.8343 14.3156 12.1365C14.3156 12.448 14.284 12.7518 14.2241 13.0457C14.1642 13.3396 14.0753 13.6224 13.9615 13.8924C13.8476 14.1624 13.7076 14.4188 13.5456 14.6587C13.3836 14.8986 13.1989 15.1223 12.995 15.3262C12.7911 15.5301 12.5674 15.7148 12.3275 15.8768M18.6327 18.8163H1V1.18369H18.6327V18.8163ZM8.29331 14.3681C8.2518 14.4662 8.21947 14.5691 8.1978 14.676C8.17612 14.7829 8.16437 14.8934 8.16437 15.0066C8.16437 15.1197 8.17575 15.2303 8.1978 15.3372C8.21984 15.4441 8.2518 15.5469 8.29331 15.645C8.33482 15.7431 8.38551 15.8364 8.44465 15.9235C8.5038 16.0105 8.57065 16.0921 8.64486 16.1663C8.71906 16.2405 8.80024 16.3077 8.88767 16.3665C8.9751 16.4253 9.06804 16.4763 9.16612 16.5178C9.2642 16.5594 9.36706 16.5917 9.47396 16.6134C9.58086 16.635 9.69143 16.6468 9.80457 16.6468C9.91771 16.6468 10.0283 16.6354 10.1352 16.6134C10.2421 16.5913 10.3449 16.5594 10.443 16.5178C10.5411 16.4763 10.6344 16.4256 10.7215 16.3665C10.8085 16.3074 10.8901 16.2405 10.9643 16.1663C11.0385 16.0921 11.1057 16.0109 11.1645 15.9235C11.2233 15.8361 11.2743 15.7431 11.3158 15.645C11.3573 15.5469 11.3897 15.4441 11.4113 15.3372C11.433 15.2303 11.4448 15.1197 11.4448 15.0066C11.4448 14.8934 11.4334 14.7829 11.4113 14.676C11.3893 14.5691 11.3573 14.4662 11.3158 14.3681C11.2743 14.2701 11.2236 14.1767 11.1645 14.0897L9.8042 11.7262L8.44392 14.0897C8.38514 14.1771 8.33408 14.2701 8.29257 14.3681H8.29331Z" stroke="black" stroke-miterlimit="10"/>
</svg>
