<?xml version="1.0" encoding="utf-8"?>
<!-- Generator: Adobe Illustrator 23.1.1, SVG Export Plug-In . SVG Version: 6.00 Build 0)  -->
<svg version="1.1" id="Layer_1" xmlns="http://www.w3.org/2000/svg" xmlns:xlink="http://www.w3.org/1999/xlink" x="0px" y="0px"
	 viewBox="0 0 46.5 46.5" style="enable-background:new 0 0 46.5 46.5;" xml:space="preserve">
<style type="text/css">
	.st0{fill:none;stroke:#658D3C;stroke-linecap:round;stroke-linejoin:round;stroke-miterlimit:10;}
	.st1{fill:none;stroke:#629440;stroke-miterlimit:10;}
</style>
<g>
	<circle class="st0" cx="23.2" cy="23.2" r="22.5"/>
	<path class="st1" d="M17.9,20.8c-2.9,0-5.2-2.3-5.2-5.2s2.3-5.2,5.2-5.2s5.2,2.3,5.2,5.2S20.8,20.8,17.9,20.8z M27.5,33.2v-5.6
		c0-2.3-1.9-4.2-4.2-4.2H12.2c-2.3,0-4.2,1.9-4.2,4.2v5.6 M34.5,16.4c0-2.5-2-4.6-4.6-4.6s-4.6,2-4.6,4.6c0,2.5,2,4.6,4.6,4.6
		S34.5,18.9,34.5,16.4z M38.5,31.9V27c0-2-1.6-3.6-3.6-3.6h-7.4"/>
</g>
</svg>
