<?xml version="1.0" encoding="utf-8"?>
<!-- Generator: Adobe Illustrator 25.2.1, SVG Export Plug-In . SVG Version: 6.00 Build 0)  -->
<svg version="1.1" id="Unallocated" xmlns="http://www.w3.org/2000/svg" xmlns:xlink="http://www.w3.org/1999/xlink" x="0px"
	 y="0px" viewBox="0 0 46 46" style="enable-background:new 0 0 46 46;" xml:space="preserve">
<style type="text/css">
	.st0{fill:none;stroke:#4F8325;stroke-linecap:round;stroke-linejoin:round;stroke-miterlimit:10;}
	.st1{fill:none;stroke:#4F8325;stroke-miterlimit:10;}
</style>
<g>
	<circle class="st0" cx="23" cy="23" r="22.5"/>
	<path class="st1" d="M34.970936,14.427606c-0.659851,0-1.272095,0.199707-1.783997,0.538513V9.374322H27.59514
		c0.338806-0.511902,0.538513-1.124146,0.538513-1.783997c0-1.78894-1.450195-3.239136-3.239136-3.239136
		s-3.239136,1.450195-3.239136,3.239136c0,0.659851,0.199707,1.272095,0.538513,1.783997H16.60216v16.584778h5.591736
		c-0.338867-0.511902-0.538513-1.124146-0.538513-1.784058c0-1.78894,1.450195-3.239136,3.239136-3.239136
		s3.239197,1.450195,3.239197,3.239136c0,0.659912-0.199707,1.272156-0.538574,1.784058h5.591799v-5.591736
		c0.511902,0.338806,1.124146,0.538513,1.783997,0.538513c1.78894,0,3.239136-1.450195,3.239136-3.239136
		S36.759876,14.427606,34.970936,14.427606z"/>
	<path class="st1" d="M28.252735,41.7155l0.000023-7.837311h-5.591797c0.338806-0.511902,0.538513-1.124146,0.538513-1.783997
		c0-1.78894-1.450195-3.239136-3.239136-3.239136s-3.239136,1.450195-3.239136,3.239136
		c0,0.659851,0.199707,1.272095,0.538513,1.783997H11.66798c0,0-0.000046-0.058853-0.000046,4.854809"/>
</g>
</svg>
