<svg xmlns="http://www.w3.org/2000/svg" xmlns:xlink="http://www.w3.org/1999/xlink" width="14px" height="17px"
     viewBox="-1.25 0.5 15 15" version="1.1" aria-labelledby="svgTitle svgDesc" role="img">
    <title id="svgTitle">Globe Rating</title>
    <desc id="svgDesc">Globe Rating—Low</desc>
    <g id="One-Globe-Rating" stroke="none" stroke-width="1" fill="none" fill-rule="evenodd">
        <path d="M3.374,4.698 C4.102,3.27 5.054,2.22 5.264,1.996 C3.696,2.234 2.338,3.06 1.386,4.236 C2.03,4.432 2.702,4.586 3.374,4.698 Z M9.016,4.698 C9.688,4.586 10.346,4.432 11.004,4.236 C10.052,3.06 8.694,2.234 7.126,1.996 C7.336,2.22 8.288,3.27 9.016,4.698 Z M5.768,4.922 L5.768,2.486 C5.348,3.018 4.746,3.844 4.242,4.824 C4.746,4.88 5.25,4.922 5.768,4.922 Z M6.622,4.922 C7.14,4.922 7.644,4.88 8.148,4.824 C7.644,3.844 7.042,3.018 6.622,2.486 L6.622,4.922 Z M2.464,7.68 C2.52,6.91 2.73,6.168 3.01,5.482 C2.296,5.342 1.582,5.174 0.896,4.95 C0.42,5.762 0.112,6.686 0.056,7.68 L2.464,7.68 Z M12.334,7.68 C12.264,6.686 11.97,5.762 11.494,4.95 C10.808,5.174 10.094,5.342 9.38,5.482 C9.66,6.168 9.87,6.91 9.926,7.68 L12.334,7.68 Z M5.768,7.68 L5.768,5.762 C5.124,5.748 4.494,5.692 3.878,5.608 C3.598,6.28 3.402,6.98 3.346,7.68 L5.768,7.68 Z M9.044,7.68 C8.988,6.98 8.778,6.28 8.512,5.608 C7.896,5.692 7.266,5.748 6.622,5.762 L6.622,7.68 L9.044,7.68 Z M0.896,11.208 C1.582,10.998 2.296,10.816 3.01,10.69 C2.73,10.004 2.52,9.262 2.464,8.492 L0.056,8.492 C0.112,9.472 0.42,10.41 0.896,11.208 Z M3.878,10.55 C4.494,10.466 5.124,10.41 5.768,10.41 L5.768,8.492 L3.346,8.492 C3.402,9.178 3.598,9.892 3.878,10.55 Z M11.494,11.208 C11.97,10.41 12.264,9.472 12.334,8.492 L9.926,8.492 C9.87,9.262 9.66,10.004 9.38,10.69 C10.094,10.816 10.808,10.998 11.494,11.208 Z M8.512,10.55 C8.778,9.892 8.988,9.178 9.044,8.492 L6.622,8.492 L6.622,10.41 C7.266,10.41 7.896,10.466 8.512,10.55 Z M5.768,13.686 L5.768,11.236 C5.25,11.25 4.746,11.278 4.242,11.334 C4.746,12.314 5.348,13.154 5.768,13.686 Z M6.622,13.686 C7.042,13.154 7.644,12.314 8.148,11.334 C7.644,11.278 7.14,11.25 6.622,11.236 L6.622,13.686 Z M5.264,14.162 C5.054,13.938 4.102,12.902 3.374,11.474 C2.702,11.586 2.03,11.74 1.386,11.922 C2.338,13.098 3.696,13.924 5.264,14.162 Z M7.126,14.162 C8.694,13.924 10.052,13.098 11.004,11.922 C10.346,11.74 9.688,11.586 9.016,11.474 C8.288,12.902 7.336,13.938 7.126,14.162 Z"
              id=";" fill="#1E1E1E" fill-rule="nonzero"/>
    </g>
</svg>
